<?xml version="1.0" encoding="UTF-8" standalone="no"?>
<!DOCTYPE svg PUBLIC "-//W3C//DTD SVG 1.1//EN" "http://www.w3.org/Graphics/SVG/1.1/DTD/svg11.dtd">
<svg width="100%" height="100%" viewBox="0 0 16 16" version="1.1" xmlns="http://www.w3.org/2000/svg" xmlns:xlink="http://www.w3.org/1999/xlink" xml:space="preserve" xmlns:serif="http://www.serif.com/" style="fill-rule:evenodd;clip-rule:evenodd;stroke-linejoin:round;stroke-miterlimit:2;">
    <g transform="matrix(0.198295,0,0,0.198295,-78.7541,-26.1578)">
        <path d="M455.491,141.095C460.622,144.058 464.32,145.976 466.983,147.531C466.97,147.54 466.959,147.549 466.947,147.559L460.804,152.433L457.164,152.226C455.205,150.684 452.871,149.403 450.139,148.448C448.394,145.172 445.38,142.657 441.734,141.543L441.732,141.527C441.954,141.274 442.088,140.948 442.088,140.59C442.088,139.791 441.421,139.145 440.597,139.145C440.396,139.144 440.203,139.184 440.027,139.255C439.808,139.135 439.574,139.03 439.326,138.943C439.505,137.969 440.002,137.147 440.7,136.504C441.588,135.686 442.802,135.154 444.123,134.958C444.334,134.927 444.482,134.737 444.463,134.527C447.103,136.05 450.545,138.24 455.491,141.095ZM471.745,151.099C474.126,153.945 473.671,157.628 473.519,167.576L470.166,166.132L470.165,166.135C469.843,165.996 469.475,165.963 469.112,166.063L465.134,167.163C464.675,162.9 463.207,158.928 460.571,155.611L461.232,155.649C461.638,155.671 462.016,155.539 462.311,155.305L462.312,155.306L468.341,150.52L471.074,151.1C471.302,151.149 471.531,151.146 471.745,151.099ZM473.485,170.935C473.483,171.366 473.482,171.805 473.482,172.257C473.482,193.093 475.806,192.169 463.437,198.972L467.256,185.877C467.361,185.558 467.366,185.203 467.247,184.86C466.958,184.029 466.05,183.591 465.22,183.881L461.923,185.034C462.224,184.325 462.521,183.602 462.806,182.857C464.385,178.743 465.257,174.497 465.292,170.423L469.416,169.282L472.961,170.809C473.132,170.882 473.309,170.924 473.485,170.935ZM459.488,201.152C458.262,201.835 456.935,202.584 455.491,203.418C434.283,215.662 440.716,215.662 419.509,203.418C418.065,202.584 416.739,201.836 415.512,201.152L411.649,187.906L414.967,189.066C426.97,212.306 448.029,212.307 460.033,189.067L463.351,187.906L459.488,201.152ZM411.562,198.971C399.193,192.168 401.518,193.093 401.518,172.257C401.518,171.805 401.517,171.367 401.515,170.935C401.691,170.923 401.868,170.882 402.039,170.809L405.585,169.282L409.709,170.422C409.743,174.496 410.615,178.743 412.193,182.857C412.479,183.602 412.775,184.325 413.078,185.034L409.78,183.88C408.951,183.591 408.043,184.03 407.754,184.86C407.634,185.202 407.638,185.558 407.744,185.878L411.562,198.971ZM401.481,167.576C401.33,157.627 400.876,153.945 403.255,151.099C403.469,151.146 403.697,151.149 403.925,151.1L406.66,150.52L412.689,155.306L412.689,155.305C412.984,155.539 413.362,155.671 413.767,155.649L414.429,155.611C411.793,158.928 410.324,162.9 409.865,167.163L405.888,166.062C405.525,165.962 405.156,165.996 404.836,166.135L404.834,166.132L401.481,167.576ZM408.017,147.531C410.679,145.976 414.379,144.058 419.509,141.096C424.456,138.24 427.897,136.051 430.538,134.527C430.518,134.737 430.666,134.927 430.877,134.958C432.197,135.153 433.412,135.687 434.299,136.504C434.999,137.147 435.494,137.969 435.674,138.943C435.426,139.031 435.191,139.135 434.972,139.255C434.797,139.184 434.604,139.145 434.402,139.145C433.58,139.144 432.913,139.792 432.913,140.59C432.913,140.948 433.047,141.275 433.267,141.527L433.266,141.543C429.62,142.657 426.606,145.173 424.861,148.448C422.129,149.403 419.796,150.684 417.836,152.227L414.196,152.433L408.053,147.558C408.042,147.549 408.029,147.54 408.017,147.531ZM431.128,134.191C436.513,131.154 438.486,131.154 443.873,134.191C442.45,134.424 441.136,135.019 440.161,135.918C439.353,136.662 438.775,137.612 438.552,138.736C438.216,138.672 437.863,138.639 437.5,138.639C437.136,138.638 436.784,138.672 436.447,138.736C436.225,137.611 435.647,136.662 434.839,135.918C433.863,135.019 432.55,134.425 431.128,134.191Z" style="fill:rgb(64,160,43);"/>
    </g>
    <g transform="matrix(0.198295,0,0,0.198295,-78.7541,-26.1578)">
        <path d="M455.491,141.095C460.622,144.058 464.32,145.976 466.983,147.531C466.97,147.54 466.959,147.549 466.947,147.559L460.804,152.433L457.164,152.226C455.205,150.684 452.871,149.403 450.139,148.448C448.394,145.172 445.38,142.657 441.734,141.543L441.732,141.527C441.954,141.274 442.088,140.948 442.088,140.59C442.088,139.791 441.421,139.145 440.597,139.145C440.396,139.144 440.203,139.184 440.027,139.255C439.808,139.135 439.574,139.03 439.326,138.943C439.505,137.969 440.002,137.147 440.7,136.504C441.588,135.686 442.802,135.154 444.123,134.958C444.334,134.927 444.482,134.737 444.463,134.527C447.103,136.05 450.545,138.24 455.491,141.095ZM473.484,171.178C470.847,173.335 467.856,175.254 464.575,176.885C465.029,174.713 465.273,172.544 465.292,170.423L469.416,169.282L472.961,170.809C473.132,170.882 473.309,170.924 473.485,170.935L473.484,171.178ZM410.425,176.884C407.144,175.254 404.152,173.335 401.515,171.178L401.515,170.935C401.691,170.923 401.868,170.882 402.039,170.809L405.585,169.282L409.709,170.422C409.726,172.544 409.971,174.713 410.425,176.884ZM471.745,151.099C474.126,153.945 473.671,157.628 473.519,167.576L470.166,166.132L470.165,166.135C469.843,165.996 469.475,165.963 469.112,166.063L465.134,167.163C464.675,162.9 463.207,158.928 460.571,155.611L461.232,155.649C461.638,155.671 462.016,155.539 462.311,155.305L462.312,155.306L468.341,150.52L471.074,151.1C471.302,151.149 471.531,151.146 471.745,151.099ZM401.481,167.576C401.33,157.627 400.876,153.945 403.255,151.099C403.469,151.146 403.697,151.149 403.925,151.1L406.66,150.52L412.689,155.306L412.689,155.305C412.984,155.539 413.362,155.671 413.767,155.649L414.429,155.611C411.793,158.928 410.324,162.9 409.865,167.163L405.888,166.062C405.525,165.962 405.156,165.996 404.836,166.135L404.834,166.132L401.481,167.576ZM408.017,147.531C410.679,145.976 414.379,144.058 419.509,141.096C424.456,138.24 427.897,136.051 430.538,134.527C430.518,134.737 430.666,134.927 430.877,134.958C432.197,135.153 433.412,135.687 434.299,136.504C434.999,137.147 435.494,137.969 435.674,138.943C435.426,139.031 435.191,139.135 434.972,139.255C434.797,139.184 434.604,139.145 434.402,139.145C433.58,139.144 432.913,139.792 432.913,140.59C432.913,140.948 433.047,141.275 433.267,141.527L433.266,141.543C429.62,142.657 426.606,145.173 424.861,148.448C422.129,149.403 419.796,150.684 417.836,152.227L414.196,152.433L408.053,147.558C408.042,147.549 408.029,147.54 408.017,147.531ZM431.128,134.191C436.513,131.154 438.486,131.154 443.873,134.191C442.45,134.424 441.136,135.019 440.161,135.918C439.353,136.662 438.775,137.612 438.552,138.736C438.216,138.672 437.863,138.639 437.5,138.639C437.136,138.638 436.784,138.672 436.447,138.736C436.225,137.611 435.647,136.662 434.839,135.918C433.863,135.019 432.55,134.425 431.128,134.191Z" style="fill:rgb(131,202,120);"/>
    </g>
    <g transform="matrix(0.198295,0,0,0.198295,-78.7541,-26.1578)">
        <path d="M429.785,151.231C430.975,155.519 435.505,159.254 435.505,163.965L435.505,193.405C435.505,198.831 435.276,202.386 430.021,199.506C423.173,195.755 418.613,188.457 415.92,181.439C414.256,177.104 413.468,172.65 413.746,168.519C414.015,164.495 415.296,160.781 417.763,157.81C420.351,154.694 424.286,152.345 429.785,151.231ZM431.517,143.763C429.836,144.667 428.388,145.942 427.286,147.475C429.164,146.945 431.109,146.599 433.068,146.399C433.002,145.291 432.399,144.328 431.517,143.763ZM443.483,143.763C445.165,144.667 446.612,145.942 447.714,147.475C445.836,146.945 443.891,146.599 441.932,146.399C442,145.291 442.601,144.328 443.483,143.763ZM439.496,193.405L439.496,163.964C439.496,159.254 444.025,155.52 445.215,151.231C450.714,152.345 454.648,154.695 457.236,157.81C459.705,160.781 460.985,164.495 461.255,168.519C461.532,172.65 460.744,177.104 459.081,181.439C456.384,188.465 451.818,195.777 444.958,199.521C439.722,202.378 439.496,198.819 439.496,193.405ZM451.591,157.102C449.74,157.102 448.239,158.603 448.239,160.454C448.239,162.306 449.74,163.807 451.591,163.807C453.443,163.807 454.944,162.306 454.944,160.454C454.944,158.603 453.443,157.102 451.591,157.102ZM448.718,185.167C446.867,185.167 445.365,186.669 445.365,188.521C445.365,190.372 446.867,191.873 448.717,191.873C450.57,191.873 452.07,190.372 452.07,188.521C452.07,186.669 450.57,185.168 448.717,185.168L448.718,185.167ZM445.556,170.034C443.705,170.034 442.205,171.535 442.205,173.386C442.205,175.238 443.705,176.739 445.556,176.739C447.409,176.739 448.91,175.238 448.91,173.386C448.91,171.534 447.408,170.034 445.556,170.034ZM429.443,170.034C431.295,170.034 432.796,171.535 432.796,173.386C432.797,175.238 431.295,176.739 429.443,176.739C427.591,176.739 426.09,175.238 426.09,173.386C426.09,171.534 427.591,170.034 429.443,170.034ZM423.409,157.102C425.26,157.102 426.761,158.603 426.761,160.454C426.761,162.306 425.259,163.807 423.408,163.807C421.557,163.807 420.056,162.306 420.056,160.454C420.056,158.603 421.556,157.102 423.409,157.102ZM426.282,185.167C428.133,185.167 429.634,186.669 429.634,188.521C429.634,190.372 428.133,191.873 426.282,191.873C424.43,191.873 422.929,190.372 422.929,188.521C422.929,186.669 424.43,185.168 426.282,185.167Z" style="fill:rgb(210,15,57);"/>
    </g>
    <g transform="matrix(0.198295,0,0,0.198295,-78.7541,-26.1578)">
        <path d="M429.785,151.231C430.975,155.519 435.505,159.254 435.505,163.965L435.505,182.931C428.143,182.711 421.208,181.286 415.055,178.916C413.992,175.395 413.522,171.852 413.746,168.519C414.015,164.495 415.296,160.781 417.763,157.81C420.351,154.694 424.286,152.345 429.785,151.231ZM459.945,178.916C453.793,181.286 446.857,182.711 439.496,182.931L439.496,163.964C439.496,159.254 444.025,155.52 445.215,151.231C450.714,152.345 454.648,154.695 457.236,157.81C459.705,160.781 460.985,164.495 461.255,168.519C461.478,171.852 461.008,175.395 459.945,178.916ZM431.517,143.763C429.836,144.667 428.388,145.942 427.286,147.475C429.164,146.945 431.109,146.599 433.068,146.399C433.002,145.291 432.399,144.328 431.517,143.763ZM443.483,143.763C445.165,144.667 446.612,145.942 447.714,147.475C445.836,146.945 443.891,146.599 441.932,146.399C442,145.291 442.601,144.328 443.483,143.763ZM451.591,157.102C449.74,157.102 448.239,158.603 448.239,160.454C448.239,162.306 449.74,163.807 451.591,163.807C453.443,163.807 454.944,162.306 454.944,160.454C454.944,158.603 453.443,157.102 451.591,157.102ZM445.556,170.034C443.705,170.034 442.205,171.535 442.205,173.386C442.205,175.238 443.705,176.739 445.556,176.739C447.409,176.739 448.91,175.238 448.91,173.386C448.91,171.534 447.408,170.034 445.556,170.034ZM429.443,170.034C431.295,170.034 432.796,171.535 432.796,173.386C432.797,175.238 431.295,176.739 429.443,176.739C427.591,176.739 426.09,175.238 426.09,173.386C426.09,171.534 427.591,170.034 429.443,170.034ZM423.409,157.102C425.26,157.102 426.761,158.603 426.761,160.454C426.761,162.306 425.259,163.807 423.408,163.807C421.557,163.807 420.056,162.306 420.056,160.454C420.056,158.603 421.556,157.102 423.409,157.102Z" style="fill:rgb(230,69,83);"/>
    </g>
</svg>
